<?xml version="1.0" encoding="utf-8"?>
<!-- Generator: Adobe Illustrator 27.1.1, SVG Export Plug-In . SVG Version: 6.00 Build 0)  -->
<svg version="1.1" baseProfile="tiny" id="Ebene_1" xmlns="http://www.w3.org/2000/svg" xmlns:xlink="http://www.w3.org/1999/xlink"
	 x="0px" y="0px" viewBox="0 0 85.5 84.5" overflow="visible" xml:space="preserve">
<path fill="#FFFFFF" d="M85.5,42.3c0-15.1-8-28.3-20.1-35.7C58.9,2.4,51.1,0,42.7,0S26.6,2.4,20.1,6.6C8,14,0,27.2,0,42.3
	S8,70.5,20.1,78c6.5,4.2,14.3,6.6,22.7,6.6s16.1-2.4,22.7-6.6C77.5,70.5,85.5,57.3,85.5,42.3L85.5,42.3z M7.5,42.3
	c0-5.8,1.4-11.3,4.1-16.3l6.8,6.8c-1.2,2.9-1.8,6.1-1.8,9.5c0,3.3,0.6,6.5,1.8,9.4l-6.8,6.8C9,53.6,7.5,48.1,7.5,42.3z M61.3,42.3
	c0,4.8-1.9,9.4-5.4,12.8c-3.5,3.4-8.2,5.3-13.1,5.3s-9.6-1.9-13.1-5.3c-3.5-3.4-5.4-8-5.4-12.8s1.9-9.4,5.4-12.8
	c3.5-3.4,8.2-5.3,13.1-5.3s9.6,1.9,13.1,5.3C59.4,33,61.3,37.5,61.3,42.3z M29,10.5c4.3-1.8,9-2.7,13.7-2.7s9.4,0.9,13.7,2.7
	c0.8,0.3,1.5,0.7,2.3,1L52,18.3c-1.8-0.7-3.7-1.2-5.7-1.4c0,0,0,0,0,0c-0.1,0-0.2,0-0.4,0c-0.1,0-0.3,0-0.4-0.1c0,0,0,0,0,0
	c-1.7-0.2-3.5-0.2-5.3,0c-0.1,0-0.1,0-0.2,0c-0.1,0-0.2,0-0.3,0c-2.1,0.2-4.2,0.8-6.2,1.5l-6.8-6.8C27.5,11.1,28.2,10.8,29,10.5
	L29,10.5z M56.5,74.1c-4.3,1.8-9,2.7-13.7,2.7s-9.4-0.9-13.7-2.7c-0.8-0.3-1.5-0.7-2.3-1l6.7-6.7c2.9,1.1,6,1.7,9.3,1.7
	s6.4-0.6,9.3-1.7l6.7,6.7C58,73.4,57.3,73.8,56.5,74.1z M67,51.8c1.2-2.9,1.8-6.1,1.8-9.5c0-3.4-0.7-6.6-1.8-9.5l6.8-6.8
	c2.7,5,4.1,10.5,4.1,16.3c0,5.8-1.4,11.4-4.2,16.3C73.8,58.6,67,51.8,67,51.8z"/>
</svg>
