<?xml version="1.0" encoding="utf-8"?>
<!-- Generator: Adobe Illustrator 27.1.1, SVG Export Plug-In . SVG Version: 6.00 Build 0)  -->
<svg version="1.1" baseProfile="tiny" id="Ebene_1" xmlns="http://www.w3.org/2000/svg" xmlns:xlink="http://www.w3.org/1999/xlink"
	 x="0px" y="0px" viewBox="0 0 84.3 84.3" overflow="visible" xml:space="preserve">
<path fill="#FFFFFF" d="M34.8,83.5l-0.7-8.7l0,0c-3.4-0.8-6.6-2.2-9.5-3.9L18,76.6C17.3,77.2,7.1,67,7.7,66.3l5.6-6.6
	c-1.8-3-3.1-6.2-3.9-9.5l-8.7-0.7c-1-0.1-1-14.5,0-14.6l8.7-0.7l0,0c0.8-3.4,2.2-6.6,3.9-9.5L7.7,18C7.1,17.3,17.3,7.1,18,7.7
	l6.6,5.6l0,0c3-1.8,6.2-3.1,9.5-3.9l0.7-8.7c0.1-1,14.5-1,14.6,0l0.7,8.7l0,0c3.4,0.8,6.6,2.1,9.5,3.9l6.6-5.6
	C67,7.1,77.2,17.3,76.6,18l-5.6,6.6c1.8,3,3.1,6.2,3.9,9.5l8.7,0.7c1,0.1,1,14.5,0,14.6l-8.7,0.7l0,0c-0.8,3.4-2.2,6.6-3.9,9.5
	l5.6,6.6c0.6,0.7-10,10.6-10.3,10.3L59.7,71c-3,1.8-6.2,3.1-9.5,3.9l-0.7,8.7l0,0C49.4,84.5,34.9,84.5,34.8,83.5z M42.1,19.5
	c-6,0-11.8,2.4-16,6.6c-4.2,4.2-6.6,10-6.6,16s2.4,11.8,6.6,16c4.2,4.2,10,6.6,16,6.6s11.8-2.4,16-6.6c4.2-4.2,6.6-10,6.6-16
	s-2.4-11.8-6.6-16C53.9,21.9,48.1,19.5,42.1,19.5L42.1,19.5z"/>
</svg>
