<?xml version="1.0" encoding="utf-8"?>
<!-- Generator: Adobe Illustrator 27.1.1, SVG Export Plug-In . SVG Version: 6.00 Build 0)  -->
<svg version="1.1" baseProfile="tiny" id="Ebene_1" xmlns="http://www.w3.org/2000/svg" xmlns:xlink="http://www.w3.org/1999/xlink"
	 x="0px" y="0px" viewBox="0 0 85.5 84.2" overflow="visible" xml:space="preserve">
<path fill="#FFFFFF" d="M58.2,24.9c-1.5-0.2-2.8,0.9-3,2.4l-1.5,12.6c-0.1,0.5-0.5,0.8-0.8,0.8h-0.1c-0.5,0-0.8-0.5-0.8-1l0.8-16.4
	c0.1-1.5-1.1-2.9-2.6-3c-1.5-0.1-2.8,1.1-2.8,2.7l-0.8,16.5c0,0.5-0.5,0.9-0.9,0.9s-0.7-0.4-0.8-0.9l-1-19c-0.1-1.5-1.4-2.7-2.8-2.7
	c-1.5,0.1-2.7,1.4-2.6,3l1,18.2c0,0.5-0.4,1-0.9,1h-0.3c-0.4,0-0.7-0.3-0.7-0.8l-2.4-14.9c-0.3-1.5-1.6-2.6-3.1-2.3
	c-1.5,0.3-2.5,1.7-2.2,3.3c0,0,2,12.2,2.4,14.8c0.3,2.6,0.5,4.1,0.5,6.4c0.1,1.3-1,2.1-2.2,0.9c0,0-2.3-3-3.6-4.4s-2.8-1.9-4.1-1.1
	c-1.5,1-1.8,3-0.9,4.4c0,0,5.8,10,9.4,14.2c1.6,1.8,3.6,3.7,5.9,3.7c4.6,0,7.2,0.1,11.9,0.1c6.1,0,7.5-6.1,8.4-12.5
	c0.9-6.3,3.1-23.7,3.1-23.7C60.7,26.5,59.6,25,58.2,24.9L58.2,24.9L58.2,24.9z"/>
<path fill="#FFFFFF" d="M42.7,8.3c4.7,0,9.2,0.9,13.4,2.7c4.1,1.7,7.8,4.2,11,7.3c6.5,6.4,10,14.8,10,23.8s-3.6,17.5-10,23.8
	c-3.2,3.1-6.8,5.6-11,7.3c-4.3,1.8-8.8,2.7-13.4,2.7s-9.2-0.9-13.4-2.7c-4.1-1.7-7.8-4.2-11-7.3c-6.5-6.4-10-14.8-10-23.8
	s3.6-17.5,10-23.8c3.2-3.1,6.8-5.6,11-7.3C33.6,9.2,38.1,8.3,42.7,8.3 M42.7,0C19.1,0,0,18.8,0,42.1s19.1,42.1,42.7,42.1
	s42.7-18.8,42.7-42.1S66.4,0,42.7,0L42.7,0z"/>
</svg>
